<?xml version="1.0" encoding="utf-8"?>
<!-- Generator: Adobe Illustrator 16.0.0, SVG Export Plug-In . SVG Version: 6.00 Build 0)  -->
<!DOCTYPE svg PUBLIC "-//W3C//DTD SVG 1.1//EN" "http://www.w3.org/Graphics/SVG/1.1/DTD/svg11.dtd">
<svg version="1.1" id="Layer_1" xmlns="http://www.w3.org/2000/svg" xmlns:xlink="http://www.w3.org/1999/xlink" x="0px" y="0px"
	 width="1920px" height="1260.553px" viewBox="0 0 1920 1260.553" enable-background="new 0 0 1920 1260.553" xml:space="preserve">
<g>
	<path fill="#E2DBD5" d="M0,613.896l313.006,100.99l-105.817,327.977c-23.603,73.152-61.69,128.365-113.204,164.104
		c-27.833,19.31-59.282,32.795-93.985,40.377v1.024c34.916-7.601,66.556-21.154,94.556-40.58
		c51.698-35.866,89.914-91.253,113.585-164.62l105.971-328.451l0.153-0.476L0,612.847V613.896z"/>
	<path fill="#E2DBD5" d="M500.578,523.999h0.018c38.075,0.001,70.424-15.073,96.14-44.553
		c18.348-21.034,33.005-49.009,43.564-83.025c6.313-20.343,15.275-60.533,4.36-100.936c-13.391-49.566-51.899-84.56-114.459-103.979
		l-64.374-19.989l-98.781,318.234l-0.148,0.476l78.924,24.625C465.105,520.835,483.528,523.999,500.578,523.999z M466.485,172.793
		l63.419,19.668c62.211,19.31,100.496,54.047,113.79,103.26c10.849,40.159,1.931,80.104-4.351,100.343
		c-10.518,33.883-25.106,61.798-43.363,82.726C570.462,508.045,538.373,523,500.596,523h-0.018c-16.95,0-35.273-3.15-54.46-9.105
		l-77.969-24.264L466.485,172.793z"/>
	<polygon fill="#E2DBD5" points="1851.39,66.907 1866.079,0 1865.057,0 1850.629,65.716 1551.277,0 1546.608,0 1850.902,66.8 	"/>
	<polygon fill="#E2DBD5" points="1858.562,125.518 1825.511,276.077 1825.404,276.565 1827.93,277.122 1920,217.712 1920,216.522 
		1827.738,276.055 1826.594,275.803 1859.323,126.709 1920,140.029 1920,139.005 1859.05,125.625 	"/>
	<path fill="#E2DBD5" d="M62.493,924.868l20.696-64.147L0,833.88v1.05l81.929,26.435L61.541,924.56
		C48.018,966.472,27.323,997.623,0,1017.209v1.222C27.787,998.744,48.807,967.285,62.493,924.868z"/>
	<path fill="#E2DBD5" d="M1517.646,452.782l-69.488,44.728c-48.577,31.267-72.67,71.308-71.607,119.012
		c0.916,41.156,20.799,80.392,37.317,106.058c8.746,13.588,23.61,33.292,44.758,49.845c25.888,20.264,54.328,30.576,84.533,30.576
		h0.016c31.222,0,64.333-11.156,98.412-33.09l56.259-36.228l0.422-0.279l-180.351-280.197L1517.646,452.782z M1641.045,769.068
		c-33.917,21.83-66.843,32.932-97.871,32.932h-0.016c-29.978,0-58.21-10.242-83.916-30.363
		c-21.037-16.467-35.829-36.06-44.533-49.582c-16.449-25.558-36.248-64.623-37.159-105.548
		c-1.053-47.332,22.886-87.086,71.149-118.151l68.647-44.189l179.536,278.948L1641.045,769.068z"/>
	<path fill="#E2DBD5" d="M739.188,169.16l-2.177,1.398l-45.368,213.111l131.243-84.475L739.188,169.16z M737.903,171.175
		l0.983-0.633l82.617,128.353l-128.382,82.634L737.903,171.175z"/>
	<path fill="#E2DBD5" d="M1150.378,155.25l-0.271-0.42l-280.19,180.349l-0.42,0.271l44.728,69.701
		C944.818,452.682,983.85,477,1030.232,477c0.005,0,0.005,0,0.01,0c42.162,0,82.574-20.524,109.048-37.564
		c17.91-11.527,50.584-36.644,68.187-74.613c21.594-46.581,14.566-98.181-20.887-153.263L1150.378,155.25z M1206.568,364.295
		c-17.496,37.741-50.001,62.83-67.819,74.3C1112.387,455.562,1072.165,476,1030.242,476h-0.01
		c-46.021,0-84.771-24.163-115.17-71.392l-44.186-68.755l278.93-179.589l35.94,55.81
		C1221.004,266.848,1228.009,318.045,1206.568,364.295z"/>
	<path fill="#E2DBD5" d="M1553.629,405.754l0.271,0.42l129.613-83.429l0.42-0.271l-1.399-2.176l-213.109-45.368L1553.629,405.754z
		 M1682.552,322.175l-128.353,82.617l-82.635-128.383l210.354,44.781L1682.552,322.175z"/>
	<path fill="#E2DBD5" d="M886.112,766.028c-29.753-28.457-71.555-42.14-101.382-48.604c-10.279-2.229-26.404-4.886-44.855-4.886
		c-33.237,0-62.055,8.295-85.651,24.654c-31.695,21.974-53.215,58.245-63.959,107.807l-14.28,65.873l325.65,70.601l0.489,0.106
		l17.508-80.765C931.872,844.357,920.594,799.009,886.112,766.028z M918.654,900.604l-17.297,79.786l-324.185-70.282l14.069-64.896
		c23.593-108.827,93.85-131.672,148.633-131.672c18.362,0,34.413,2.645,44.644,4.862c29.702,6.438,71.318,20.055,100.903,48.351
		C919.634,799.475,930.814,844.509,918.654,900.604z"/>
	<path fill="#E2DBD5" d="M909.446,1040.171l-32.66,150.645l-0.106,0.486l2.527,0.552l182.771-118.612l-152.043-32.963
		L909.446,1040.171z M1059.421,1073.709l-180.408,117.077l-1.143-0.248l32.342-149.178L1059.421,1073.709z"/>
	<path fill="#E2DBD5" d="M1920,797.587l-241.335,155.38c-57.651,37.109-115.351,56.033-171.492,56.033h-0.021
		c-53.708,0-105.619-17.164-154.273-50.812c-43.488-30.074-82.718-72.062-116.596-124.693
		c-38.428-59.703-60.737-117.638-66.792-173.099c26.71-10.862,53.813-25.111,81.205-42.742
		c55.624-35.805,128.61-96.955,160.44-184.955c14.239-39.368,18.608-80.328,12.986-121.743c-0.2-1.474-0.414-2.948-0.64-4.424
		l29.745-19.147l94.289,146.485l0.271,0.419l146.311-94.175L1920,691.117v-1.87l-225.33-350.096l-0.271-0.42l-146.311,94.175
		l-94.29-146.489l-0.271-0.42l-30.218,19.45c-6.638-42.273-23.715-85.392-50.823-128.307l433.545,95.175l0.488,0.107l37.311-169.954
		L1920,119.19v-1.023l-76.445-16.782l-0.488-0.107l-37.311,169.954l-434.028-95.281c-0.437-0.687-0.866-1.373-1.309-2.059
		l-46.424-72.124L1346.336,0h-1.023l-22.08,100.58L1258.493,0h-1.189l65.626,101.959l-13.359,60.857l-0.107,0.488l61.645,13.533
		c27.438,43.223,44.675,86.648,51.283,129.2l-78.603,50.594c-97.272,62.611-155.104,136.946-171.886,220.94
		c-5.335,26.704-6.474,54.129-3.48,82.178c-30.796,12.46-61.058,20.388-90.613,23.711c-5.628-12.055-12.106-23.593-19.446-34.599
		c-45.183-67.745-121.3-113.631-226.24-136.381c-3.204-0.694-6.4-1.349-9.593-1.98c6.508-15.473,12.445-31.814,17.789-49.027
		c19.61-63.177,36.235-156.933,4.07-244.811c-11.25-30.739-27.773-58.329-49.217-82.35L877.5,81.321
		c31.462,12.176,63.672,18.301,96.521,18.301c75.26,0,151.884-32.207,227.745-95.725c1.521-1.273,3.056-2.575,4.601-3.897h-1.544
		c-1.239,1.056-2.475,2.105-3.698,3.13c-75.677,63.363-152.085,95.492-227.104,95.492c-32.483,0-64.344-6.017-95.477-17.974
		L1003.841,0h-1.846L877.387,80.205C835.831,64.038,795.581,37.247,756.884,0h-1.441c38.813,37.515,79.197,64.529,120.901,80.876
		l-81.846,52.681c-5.785-6.429-11.904-12.615-18.395-18.517c-33.673-30.619-77.152-54.34-129.23-70.505L503.394,0h-3.377
		l146.56,45.492c51.938,16.121,95.291,39.77,128.854,70.29c6.427,5.843,12.486,11.964,18.216,18.325l-37.782,24.32l-0.42,0.271
		l94.175,146.31L702.71,399.568l66.424,103.196c-13.661-1.229-27.126-1.859-40.325-1.859c-72.444,0-134.094,18.114-183.234,53.842
		c-45.285,32.923-78.506,80.12-99.141,140.66c-13.498-3.134-27.229-6.845-41.184-11.176L281.565,645.84l51.643-166.348l0.148-0.478
		l-166.177-51.58L283.335,53.218L363.325,0h-1.808l-77.711,51.703L299.854,0h-1.047l-16.322,52.583L0,240.525v1.201l282.016-187.63
		l-115.94,373.521l-0.148,0.478l166.177,51.58l-51.643,166.347l-0.148,0.479l124.64,38.688c13.942,4.327,27.662,8.036,41.149,11.168
		c-4.847,14.346-8.993,29.432-12.425,45.258L360.555,1078.9l-0.106,0.487l496.85,107.715l0.489,0.106l36.866-170.048l170.254,36.91
		l0.488,0.105l27.65-127.544c20.625-95.135,15.623-176.388-14.797-242.218c29.455-3.347,59.604-11.244,90.276-23.63
		c6.122,55.513,28.474,113.475,66.915,173.199c33.949,52.743,73.27,94.877,116.868,125.024
		c48.827,33.769,100.923,50.99,154.842,50.99h0.021c56.338,0,114.217-18.978,172.033-56.191L1920,798.774V797.587z
		 M1310.654,162.542l13.039-59.397l45.885,71.287c0.261,0.405,0.514,0.811,0.771,1.215L1310.654,162.542z M831.909,513.457
		c104.677,22.694,180.586,68.438,225.62,135.959c7.25,10.872,13.654,22.269,19.229,34.17c-10.306,1.121-20.523,1.684-30.649,1.684
		c-51.053,0-99.66-14.429-144.474-42.885c-34.926-22.179-67.805-53.056-98.134-92.1c6.655-12.26,12.87-25.211,18.637-38.844
		C825.389,512.085,828.645,512.749,831.909,513.457z M802.829,549.41c-9.822-12.699-19.377-26.25-28.646-40.647l-3.101-4.816
		c16.435,1.552,33.154,3.988,50.053,7.299C815.465,524.631,809.357,537.354,802.829,549.41z M704.09,399.865L851,305.305
		l-94.175-146.31l37.496-24.135c21.409,23.955,37.903,51.477,49.129,82.146c32.067,87.616,15.478,181.142-4.086,244.17
		c-5.355,17.252-11.31,33.626-17.836,49.126c-17.269-3.388-34.35-5.866-51.132-7.424L704.09,399.865z M546.161,555.552
		c48.967-35.6,110.418-53.649,182.646-53.649c13.42,0,27.115,0.651,41.013,1.928l3.523,5.475
		c9.368,14.553,19.029,28.244,28.964,41.066c-56.259,103.218-143.833,157.15-257.187,157.15c-30.674,0-63.406-4.006-97.707-11.892
		C467.982,635.335,501.072,588.332,546.161,555.552z M1092.07,926.422l-27.44,126.565l-170.253-36.91l-0.489-0.106l-36.866,170.049
		l-495.384-107.397l73.02-336.799c3.43-15.823,7.579-30.904,12.428-45.242c34.413,7.919,67.256,11.94,98.036,11.94
		c113.621,0,201.417-53.979,257.855-157.282c30.327,38.975,63.201,69.813,98.123,91.99c44.977,28.561,93.765,43.041,145.01,43.041
		c10.273,0,20.645-0.58,31.103-1.73C1107.657,750.223,1112.677,831.365,1092.07,926.422z M1172.883,577.793
		c16.728-83.719,74.41-157.85,171.445-220.308l78.231-50.359c0.201,1.322,0.394,2.644,0.572,3.964
		c5.601,41.252,1.248,82.053-12.936,121.269c-31.734,87.736-104.548,148.732-160.042,184.452
		c-27.246,17.538-54.205,31.724-80.77,42.549C1166.446,631.515,1167.588,604.295,1172.883,577.793z"/>
	<path fill="#E2DBD5" d="M307.89,492.401l-147.694-45.845l-0.765,2.473L261.62,641.432l46.122-148.553L307.89,492.401z
		 M261.376,638.842L160.509,448.927l0.346-1.118l145.783,45.25L261.376,638.842z"/>
</g>
</svg>
