<?xml version="1.0" encoding="utf-8"?>
<!-- Generator: Adobe Illustrator 16.0.0, SVG Export Plug-In . SVG Version: 6.00 Build 0)  -->
<!DOCTYPE svg PUBLIC "-//W3C//DTD SVG 1.1//EN" "http://www.w3.org/Graphics/SVG/1.1/DTD/svg11.dtd">
<svg version="1.1" id="Layer_1" xmlns="http://www.w3.org/2000/svg" xmlns:xlink="http://www.w3.org/1999/xlink" x="0px" y="0px"
	 width="341px" height="81px" viewBox="0 0 341 81" enable-background="new 0 0 341 81" xml:space="preserve">
<g>
	<g>
		<path fill-rule="evenodd" clip-rule="evenodd" fill="#1D1D1B" d="M122.676,30.578c0-9.838-5.236-12.942-13.459-12.942h-9.162
			V43.81h8.491C117.817,43.81,122.676,40.407,122.676,30.578z M115.24,30.684c0,5.201-1.759,6.918-6.283,6.918h-1.569V23.844h1.793
			C113.704,23.844,115.24,25.857,115.24,30.684z"/>
		<path fill-rule="evenodd" clip-rule="evenodd" fill="#1D1D1B" d="M150.185,30.684c0-8.712-4.977-13.456-12.075-13.456
			c-7.102,0-12.153,4.817-12.153,13.527c0,8.717,4.977,13.459,12.074,13.459C145.136,44.214,150.185,39.393,150.185,30.684z
			 M142.663,30.755c0,4.715-1.641,7.146-4.554,7.146c-2.922,0-4.639-2.51-4.639-7.216c0-4.71,1.647-7.143,4.56-7.143
			C140.946,23.541,142.663,26.047,142.663,30.755z"/>
		<path fill-rule="evenodd" clip-rule="evenodd" fill="#1D1D1B" d="M176.118,37.45l-6.135-3.246
			c-1.418,2.461-2.392,3.696-4.675,3.696c-3.135,0-4.405-3.18-4.405-7.175c0-4.149,1.306-7.184,4.336-7.184
			c2.391,0,3.283,1.534,4.223,3.96l6.579-2.571c-1.796-4.94-4.336-7.702-10.771-7.702c-7.028,0-11.962,5.079-11.962,13.497
			c0,7.728,4.153,13.489,11.931,13.489C171.439,44.214,174.358,40.895,176.118,37.45z"/>
		<path fill-rule="evenodd" clip-rule="evenodd" fill="#1D1D1B" d="M202.463,32.628V17.635h-7.404v14.993
			c0,3.215-1.195,5.197-4.037,5.197s-4.113-1.982-4.113-5.197V17.635h-7.399v14.993c0,8.3,4.825,11.586,11.401,11.586
			C197.488,44.214,202.463,40.928,202.463,32.628z"/>
		<path fill-rule="evenodd" clip-rule="evenodd" fill="#1D1D1B" d="M233.85,43.81V17.635h-6.582l-3.217,6.989
			c-1.643,3.56-2.836,6.394-3.287,7.898c-0.404-1.467-1.754-4.53-3.293-7.898l-3.211-6.989h-6.658V43.81h6.807v-6.244
			c0-2.584-0.035-4.938-0.148-6.955c0.785,1.94,2.131,4.965,3.033,6.839l3.434,7.249l3.443-7.249
			c0.895-1.874,2.238-4.899,3.027-6.839c-0.111,2.017-0.152,4.371-0.152,6.955v6.244H233.85z"/>
		<polygon fill-rule="evenodd" clip-rule="evenodd" fill="#1D1D1B" points="259.457,43.81 259.457,37.711 246.334,37.711 
			246.334,33.224 254.068,33.224 254.068,27.21 246.334,27.21 246.334,23.729 259.197,23.729 259.197,17.635 239.152,17.635 
			239.152,43.81 		"/>
		<path fill-rule="evenodd" clip-rule="evenodd" fill="#1D1D1B" d="M287.037,43.81V17.635h-6.951v7.142
			c0,2.128,0.039,5.608,0.225,6.766c-0.557-1.081-2.885-4.562-4.074-6.166l-5.758-7.743h-6.396V43.81h6.959V35.8
			c0-2.128-0.043-5.604-0.23-6.757c0.674,1.153,2.922,4.522,4.08,6.129l6.23,8.638H287.037z"/>
		<polygon fill-rule="evenodd" clip-rule="evenodd" fill="#1D1D1B" points="313.16,23.953 313.16,17.635 291.254,17.635 
			291.254,23.953 298.586,23.953 298.586,43.81 305.834,43.81 305.834,23.953 		"/>
		<path fill-rule="evenodd" clip-rule="evenodd" fill="#1D1D1B" d="M338.617,43.81l-9.5-26.175h-7.324l-9.5,26.175h7.779
			l1.424-4.603h7.85l1.418,4.603H338.617z M327.59,33.453h-4.334l0.48-1.715c0.934-3.34,1.346-4.795,1.682-6.552
			c0.34,1.757,0.752,3.183,1.686,6.552L327.59,33.453z"/>
	</g>
	<path fill-rule="evenodd" clip-rule="evenodd" fill="#1D1D1B" d="M25.267,20.823V59.89h9.642c15.383,0,17.632-12.462,17.632-19.984
		c0-5.052-1.565-19.083-19.419-19.083H25.267z M0.567,59.916V0.284h40.524c26.719,0,36.144,19.756,36.144,39.962
		c0,24.587-13.021,40.184-40.976,40.184H20.997V59.916H0.567z"/>
	<g>
		<polygon fill-rule="evenodd" clip-rule="evenodd" fill="#B2A388" points="18.607,80.43 0.567,62.524 0.567,62.304 18.607,62.304 
					"/>
	</g>
	<g>
		<path fill-rule="evenodd" clip-rule="evenodd" fill="#1D1D1B" d="M106.443,67.271l-0.722-0.632
			c-0.607,0.78-1.301,1.235-2.322,1.235c-1.582,0-2.778-1.613-2.778-3.904c0-2.279,1.153-3.873,2.765-3.873
			c1.019,0,1.581,0.357,2.182,1.176l0.836-0.626c-0.74-1.017-1.71-1.506-2.993-1.506c-2.268,0-3.838,2.066-3.838,4.862
			c0,2.748,1.504,4.816,3.798,4.816C104.739,68.819,105.763,68.193,106.443,67.271z"/>
		<polygon fill-rule="evenodd" clip-rule="evenodd" fill="#1D1D1B" points="114.061,68.677 114.061,67.731 109.231,67.731 
			109.231,64.144 111.919,64.144 111.919,63.188 109.231,63.188 109.231,60.237 113.859,60.237 113.859,59.294 108.187,59.294 
			108.187,68.677 		"/>
		<path fill-rule="evenodd" clip-rule="evenodd" fill="#1D1D1B" d="M122.606,68.677v-9.383h-1.008v7.072v0.647
			c-0.119-0.241-0.466-0.856-0.666-1.184l-4.064-6.536h-1.02v9.383h1.006V61.72v-0.654c0.119,0.248,0.469,0.864,0.666,1.187
			l4.104,6.425H122.606z"/>
		<polygon fill-rule="evenodd" clip-rule="evenodd" fill="#1D1D1B" points="130.862,60.237 130.862,59.294 124.289,59.294 
			124.289,60.237 127.049,60.237 127.049,68.677 128.092,68.677 128.092,60.237 		"/>
		<path fill-rule="evenodd" clip-rule="evenodd" fill="#1D1D1B" d="M138.681,68.677l-3.26-9.383h-1.154l-3.259,9.383h1.071
			l0.822-2.383h3.877l0.809,2.383H138.681z M136.457,65.335h-3.235l1.036-3.051c0.228-0.664,0.491-1.508,0.584-1.881
			c0.097,0.387,0.38,1.232,0.579,1.849L136.457,65.335z"/>
		<path fill-rule="evenodd" clip-rule="evenodd" fill="#1D1D1B" d="M147.054,61.945c0-1.806-1.276-2.651-2.924-2.651h-3.717v9.383
			h1.046v-3.993h2.229l2.013,3.993h1.199l-2.058-4.074C146.179,64.32,147.054,63.405,147.054,61.945z M146.008,61.987
			c0,1.18-0.659,1.752-2.049,1.752h-2.5v-3.502h2.638C145.335,60.237,146.008,60.829,146.008,61.987z"/>
		<path fill-rule="evenodd" clip-rule="evenodd" fill="#1D1D1B" d="M158.271,68.677v-0.918h-4.52h-1.06
			c0.35-0.457,0.768-0.999,1.14-1.517l4.439-6.044v-0.904h-6.438v0.904h4.257h1.058c-0.348,0.459-0.768,1.009-1.148,1.521
			l-4.44,6.039v0.918H158.271z"/>
		<path fill-rule="evenodd" clip-rule="evenodd" fill="#1D1D1B" d="M167.231,68.677l-3.258-9.383h-1.153l-3.262,9.383h1.068
			l0.825-2.383h3.874l0.81,2.383H167.231z M165.006,65.335h-3.234l1.034-3.051c0.23-0.664,0.5-1.508,0.592-1.881
			c0.095,0.387,0.377,1.232,0.576,1.849L165.006,65.335z"/>
		<path fill-rule="evenodd" clip-rule="evenodd" fill="#1D1D1B" d="M177.796,66.215c0-1.399-0.643-2.095-2.72-2.853
			c-1.88-0.662-2.229-1.11-2.229-1.888c0-0.738,0.541-1.378,1.822-1.378c0.938,0,1.568,0.307,2.257,0.865l0.673-0.814
			c-0.799-0.627-1.596-1.007-2.858-1.007c-1.759,0-2.938,0.897-2.938,2.397c0,1.359,0.68,2.018,2.706,2.74
			c1.719,0.613,2.243,1.113,2.243,1.982c0,0.992-0.777,1.613-2.024,1.613c-0.964,0-1.787-0.444-2.495-1.123l-0.699,0.775
			c0.738,0.748,1.881,1.293,3.152,1.293C176.639,68.819,177.796,67.69,177.796,66.215z"/>
		<path fill-rule="evenodd" clip-rule="evenodd" fill="#1D1D1B" d="M186.451,64.841v-5.547h-1.053v5.58c0,2.021-0.635,3-2.26,3
			c-1.623,0-2.404-1.01-2.404-3.033v-5.547h-1.042v5.58c0,2.6,1.149,3.945,3.391,3.945C185.34,68.819,186.451,67.443,186.451,64.841
			z"/>
		<path fill-rule="evenodd" clip-rule="evenodd" fill="#1D1D1B" d="M196.031,63.97c0-2.831-1.557-4.829-3.893-4.829
			c-2.334,0-3.904,2.022-3.904,4.862c0,2.824,1.541,4.816,3.879,4.816S196.031,66.798,196.031,63.97z M194.98,64.003
			c0,2.35-1.205,3.871-2.826,3.871c-1.639,0-2.873-1.537-2.873-3.904c0-2.359,1.193-3.873,2.816-3.873
			C193.734,60.097,194.98,61.636,194.98,64.003z"/>
		<path fill-rule="evenodd" clip-rule="evenodd" fill="#1D1D1B" d="M203.291,56.422h-0.834l-1.363,1.385l-1.348-1.385h-0.877
			l1.654,2.145h1.125L203.291,56.422z M204.154,67.271l-0.717-0.632c-0.604,0.78-1.312,1.235-2.322,1.235
			c-1.584,0-2.779-1.613-2.779-3.904c0-2.279,1.152-3.873,2.758-3.873c1.025,0,1.588,0.357,2.189,1.176l0.826-0.626
			c-0.734-1.017-1.695-1.506-2.984-1.506c-2.27,0-3.836,2.066-3.836,4.862c0,2.748,1.5,4.816,3.799,4.816
			C202.457,68.819,203.471,68.193,204.154,67.271z"/>
		<path fill-rule="evenodd" clip-rule="evenodd" fill="#1D1D1B" d="M212.514,68.677l-3.262-9.383h-1.15l-3.26,9.383h1.066
			l0.826-2.383h3.875l0.807,2.383H212.514z M210.289,65.335h-3.23l1.029-3.051c0.223-0.664,0.5-1.508,0.588-1.881
			c0.094,0.387,0.379,1.232,0.576,1.849L210.289,65.335z"/>
		<path fill-rule="evenodd" clip-rule="evenodd" fill="#1D1D1B" d="M220.068,59.294h-1.072l-2.109,6.387
			c-0.174,0.557-0.496,1.549-0.584,1.882c-0.098-0.333-0.391-1.286-0.58-1.85l-2.096-6.419h-1.1l3.195,9.383h1.154L220.068,59.294z"
			/>
		<path fill-rule="evenodd" clip-rule="evenodd" fill="#1D1D1B" d="M227.758,68.677l-3.26-9.383h-1.152l-3.256,9.383h1.066
			l0.814-2.383h3.885l0.801,2.383H227.758z M225.531,65.335h-3.225l1.021-3.051c0.23-0.664,0.504-1.508,0.586-1.881
			c0.1,0.387,0.387,1.232,0.584,1.849L225.531,65.335z"/>
		<path fill-rule="evenodd" clip-rule="evenodd" fill="#1D1D1B" d="M236.256,68.677v-9.383h-1.01v7.072v0.647
			c-0.125-0.241-0.471-0.856-0.674-1.184l-4.062-6.536h-1.018v9.383h1.004V61.72v-0.654c0.125,0.248,0.475,0.864,0.67,1.187
			l4.105,6.425H236.256z"/>
		<path fill-rule="evenodd" clip-rule="evenodd" fill="#1D1D1B" d="M243.863,65.089v-5.795h-1.053v5.742
			c0,1.978-0.619,2.838-2.115,2.838c-1.115,0-1.654-0.633-2.029-1.652l-0.996,0.336c0.504,1.463,1.402,2.262,2.979,2.262
			C242.811,68.819,243.863,67.592,243.863,65.089z"/>
		<polygon fill-rule="evenodd" clip-rule="evenodd" fill="#1D1D1B" points="251.922,68.677 251.922,67.731 247.09,67.731 
			247.09,64.144 249.775,64.144 249.775,63.188 247.09,63.188 247.09,60.237 251.717,60.237 251.717,59.294 246.037,59.294 
			246.037,68.677 		"/>
		<path fill-rule="evenodd" clip-rule="evenodd" fill="#1D1D1B" d="M262.537,66.215c0-1.399-0.65-2.095-2.727-2.853
			c-1.875-0.662-2.227-1.11-2.227-1.888c0-0.738,0.537-1.378,1.828-1.378c0.936,0,1.568,0.307,2.252,0.865l0.676-0.814
			c-0.803-0.627-1.604-1.007-2.865-1.007c-1.756,0-2.934,0.897-2.934,2.397c0,1.359,0.682,2.018,2.707,2.74
			c1.717,0.613,2.236,1.113,2.236,1.982c0,0.992-0.775,1.613-2.027,1.613c-0.961,0-1.775-0.444-2.49-1.123l-0.695,0.775
			c0.742,0.748,1.871,1.293,3.154,1.293C261.381,68.819,262.537,67.69,262.537,66.215z"/>
		<path fill-rule="evenodd" clip-rule="evenodd" fill="#1D1D1B" d="M274.062,62.083c0-1.898-1.283-2.789-2.986-2.789h-3.521v9.383
			h1.049v-3.684h2.273C272.758,64.993,274.062,63.958,274.062,62.083z M273.016,62.131c0,1.243-0.686,1.911-2.115,1.911h-2.297
			v-3.805h2.43C272.316,60.237,273.016,60.926,273.016,62.131z"/>
		<path fill-rule="evenodd" clip-rule="evenodd" fill="#1D1D1B" d="M282.271,61.945c0-1.806-1.273-2.651-2.924-2.651h-3.715v9.383
			h1.049v-3.993h2.227l2.006,3.993h1.207l-2.066-4.074C281.4,64.32,282.271,63.405,282.271,61.945z M281.227,61.987
			c0,1.18-0.658,1.752-2.053,1.752h-2.492v-3.502h2.621C280.559,60.237,281.227,60.829,281.227,61.987z"/>
		<path fill-rule="evenodd" clip-rule="evenodd" fill="#1D1D1B" d="M291.355,63.97c0-2.831-1.557-4.829-3.891-4.829
			c-2.34,0-3.902,2.022-3.902,4.862c0,2.824,1.541,4.816,3.877,4.816C289.771,68.819,291.355,66.798,291.355,63.97z M290.311,64.003
			c0,2.35-1.207,3.871-2.832,3.871c-1.641,0-2.871-1.537-2.871-3.904c0-2.359,1.191-3.873,2.816-3.873
			C289.055,60.097,290.311,61.636,290.311,64.003z"/>
		<path fill-rule="evenodd" clip-rule="evenodd" fill="#1D1D1B" d="M298.1,56.422h-0.85l-1.354,1.385l-1.348-1.385h-0.873
			l1.645,2.145h1.129L298.1,56.422z M298.971,66.215c0-1.399-0.646-2.095-2.723-2.853c-1.883-0.662-2.232-1.11-2.232-1.888
			c0-0.738,0.543-1.378,1.832-1.378c0.938,0,1.568,0.307,2.252,0.865l0.668-0.814c-0.793-0.627-1.592-1.007-2.859-1.007
			c-1.752,0-2.934,0.897-2.934,2.397c0,1.359,0.682,2.018,2.713,2.74c1.717,0.613,2.236,1.113,2.236,1.982
			c0,0.992-0.781,1.613-2.027,1.613c-0.965,0-1.789-0.444-2.496-1.123l-0.695,0.775c0.748,0.748,1.877,1.293,3.154,1.293
			C297.816,68.819,298.971,67.69,298.971,66.215z"/>
		<polygon fill-rule="evenodd" clip-rule="evenodd" fill="#1D1D1B" points="306.613,68.677 306.613,67.731 301.971,67.731 
			301.971,59.294 300.932,59.294 300.932,68.677 		"/>
		<path fill-rule="evenodd" clip-rule="evenodd" fill="#1D1D1B" d="M315.498,63.97c0-2.831-1.555-4.829-3.891-4.829
			s-3.898,2.022-3.898,4.862c0,2.824,1.539,4.816,3.873,4.816C313.914,68.819,315.498,66.798,315.498,63.97z M314.449,64.003
			c0,2.35-1.205,3.871-2.832,3.871c-1.633,0-2.867-1.537-2.867-3.904c0-2.359,1.193-3.873,2.818-3.873
			C313.197,60.097,314.449,61.636,314.449,64.003z"/>
		<path fill-rule="evenodd" clip-rule="evenodd" fill="#1D1D1B" d="M322.244,56.422H321.4l-1.359,1.385l-1.35-1.385h-0.875
			l1.65,2.145h1.127L322.244,56.422z M323.117,66.215c0-1.399-0.65-2.095-2.727-2.853c-1.881-0.662-2.229-1.11-2.229-1.888
			c0-0.738,0.535-1.378,1.83-1.378c0.939,0,1.562,0.307,2.252,0.865l0.664-0.814c-0.783-0.627-1.584-1.007-2.854-1.007
			c-1.752,0-2.939,0.897-2.939,2.397c0,1.359,0.691,2.018,2.709,2.74c1.723,0.613,2.244,1.113,2.244,1.982
			c0,0.992-0.775,1.613-2.027,1.613c-0.965,0-1.783-0.444-2.5-1.123l-0.689,0.775c0.738,0.748,1.877,1.293,3.15,1.293
			C321.961,68.819,323.117,67.69,323.117,66.215z"/>
		<path fill-rule="evenodd" clip-rule="evenodd" fill="#1D1D1B" d="M331.08,56.54h-1.432l-1.383,2.149h0.793L331.08,56.54z
			 M331.545,67.271l-0.729-0.632c-0.602,0.78-1.307,1.235-2.32,1.235c-1.584,0-2.781-1.613-2.781-3.904
			c0-2.279,1.15-3.873,2.766-3.873c1.021,0,1.588,0.357,2.189,1.176l0.828-0.626c-0.734-1.017-1.701-1.506-2.984-1.506
			c-2.273,0-3.844,2.066-3.844,4.862c0,2.748,1.504,4.816,3.801,4.816C329.838,68.819,330.852,68.193,331.545,67.271z"/>
		<path fill-rule="evenodd" clip-rule="evenodd" fill="#1D1D1B" d="M339.975,64.841v-5.547h-1.043v5.58c0,2.021-0.646,3-2.266,3
			c-1.629,0-2.398-1.01-2.398-3.033v-5.547h-1.049v5.58c0,2.6,1.15,3.945,3.389,3.945C338.869,68.819,339.975,67.443,339.975,64.841
			z"/>
	</g>
</g>
</svg>
