<?xml version="1.0" encoding="utf-8"?>
<!-- Generator: Adobe Illustrator 16.0.0, SVG Export Plug-In . SVG Version: 6.00 Build 0)  -->
<!DOCTYPE svg PUBLIC "-//W3C//DTD SVG 1.1//EN" "http://www.w3.org/Graphics/SVG/1.1/DTD/svg11.dtd">
<svg version="1.1" id="Layer_1" xmlns="http://www.w3.org/2000/svg" xmlns:xlink="http://www.w3.org/1999/xlink" x="0px" y="0px"
	 width="391.181px" height="81px" viewBox="-25.091 0 391.181 81" enable-background="new -25.091 0 391.181 81"
	 xml:space="preserve">
<g>
	<g>
		<g>
			<path fill="#1D1D1B" d="M148.287,30.721c0-9.838-5.236-12.942-13.459-12.942h-9.162v26.174h8.491
				C143.427,43.953,148.287,40.55,148.287,30.721z M140.851,30.827c0,5.201-1.76,6.918-6.283,6.918h-1.569V23.987h1.793
				C139.315,23.987,140.851,26,140.851,30.827z"/>
			<path fill="#1D1D1B" d="M175.796,30.827c0-8.712-4.978-13.456-12.075-13.456c-7.102,0-12.153,4.817-12.153,13.527
				c0,8.717,4.977,13.459,12.073,13.459C170.746,44.357,175.796,39.536,175.796,30.827z M168.274,30.898
				c0,4.715-1.641,7.146-4.555,7.146c-2.922,0-4.639-2.51-4.639-7.216c0-4.71,1.648-7.143,4.561-7.143
				C166.557,23.684,168.274,26.19,168.274,30.898z"/>
			<path fill="#1D1D1B" d="M201.73,37.593l-6.135-3.246c-1.418,2.461-2.393,3.696-4.676,3.696c-3.135,0-4.404-3.18-4.404-7.175
				c0-4.149,1.307-7.184,4.336-7.184c2.391,0,3.283,1.534,4.223,3.96l6.58-2.571c-1.797-4.94-4.336-7.702-10.771-7.702
				c-7.027,0-11.963,5.079-11.963,13.497c0,7.728,4.154,13.489,11.932,13.489C197.05,44.357,199.97,41.038,201.73,37.593z"/>
			<path fill="#1D1D1B" d="M228.075,32.771V17.778h-7.404v14.993c0,3.215-1.195,5.197-4.037,5.197s-4.113-1.982-4.113-5.197V17.778
				h-7.398v14.993c0,8.299,4.824,11.586,11.4,11.586S228.075,41.07,228.075,32.771z"/>
			<path fill="#1D1D1B" d="M259.462,43.953V17.778h-6.582l-3.217,6.989c-1.643,3.56-2.836,6.394-3.287,7.898
				c-0.404-1.467-1.754-4.53-3.293-7.898l-3.211-6.989h-6.658v26.175h6.807v-6.244c0-2.584-0.035-4.938-0.148-6.955
				c0.785,1.94,2.131,4.965,3.033,6.839l3.434,7.249l3.443-7.249c0.895-1.874,2.238-4.899,3.027-6.839
				c-0.111,2.017-0.152,4.371-0.152,6.955v6.244H259.462z"/>
			<polygon fill="#1D1D1B" points="285.07,43.953 285.07,37.854 271.947,37.854 271.947,33.367 279.679,33.367 279.679,27.353 
				271.947,27.353 271.947,23.872 284.808,23.872 284.808,17.778 264.763,17.778 264.763,43.953 			"/>
			<path fill="#1D1D1B" d="M312.65,43.953V17.778h-6.951v7.142c0,2.128,0.039,5.608,0.225,6.766
				c-0.557-1.081-2.885-4.562-4.074-6.166l-5.758-7.743h-6.396v26.176h6.959v-8.01c0-2.128-0.043-5.604-0.23-6.757
				c0.674,1.153,2.922,4.522,4.08,6.129l6.23,8.638H312.65z"/>
			<polygon fill="#1D1D1B" points="338.771,24.096 338.771,17.778 316.866,17.778 316.866,24.096 324.198,24.096 324.198,43.953 
				331.447,43.953 331.447,24.096 			"/>
			<path fill="#1D1D1B" d="M364.228,43.953l-9.5-26.175h-7.322l-9.5,26.175h7.777l1.424-4.603h7.852l1.418,4.603H364.228z
				 M353.202,33.596h-4.334l0.479-1.715c0.936-3.34,1.346-4.795,1.684-6.552c0.34,1.757,0.752,3.183,1.686,6.552L353.202,33.596z"/>
		</g>
		<path fill="#1D1D1B" d="M50.878,20.966v39.067h9.643c15.383,0,17.632-12.463,17.632-19.984c0-5.052-1.565-19.083-19.419-19.083
			H50.878z M26.177,60.059V0.427h40.524c26.719,0,36.144,19.756,36.144,39.962c0,24.587-13.021,40.183-40.976,40.183H46.608V60.059
			H26.177z"/>
		<g>
			<polygon fill="#B2A388" points="44.218,80.572 26.177,62.666 26.177,62.447 44.218,62.447 			"/>
		</g>
		<g>
			<path fill="#1D1D1B" d="M132.053,67.414l-0.722-0.633c-0.607,0.781-1.301,1.236-2.322,1.236c-1.582,0-2.777-1.613-2.777-3.904
				c0-2.279,1.152-3.873,2.765-3.873c1.019,0,1.581,0.357,2.182,1.176l0.836-0.627c-0.739-1.016-1.71-1.506-2.992-1.506
				c-2.269,0-3.839,2.066-3.839,4.863c0,2.748,1.505,4.814,3.799,4.814C130.349,68.961,131.374,68.336,132.053,67.414z"/>
			<polygon fill="#1D1D1B" points="139.672,68.82 139.672,67.873 134.842,67.873 134.842,64.287 137.53,64.287 137.53,63.33 
				134.842,63.33 134.842,60.379 139.469,60.379 139.469,59.438 133.798,59.438 133.798,68.82 			"/>
			<path fill="#1D1D1B" d="M148.217,68.82v-9.383h-1.008v7.072v0.646c-0.119-0.242-0.466-0.855-0.666-1.184l-4.063-6.537h-1.021
				v9.383h1.006v-6.955v-0.654c0.119,0.248,0.469,0.863,0.666,1.188l4.104,6.424H148.217L148.217,68.82z"/>
			<polygon fill="#1D1D1B" points="156.472,60.379 156.472,59.438 149.9,59.438 149.9,60.379 152.66,60.379 152.66,68.82 
				153.703,68.82 153.703,60.379 			"/>
			<path fill="#1D1D1B" d="M164.291,68.82l-3.26-9.383h-1.154l-3.258,9.383h1.071l0.822-2.383h3.877l0.809,2.383H164.291z
				 M162.069,65.479h-3.236l1.037-3.051c0.227-0.664,0.49-1.51,0.584-1.883c0.096,0.389,0.379,1.232,0.578,1.85L162.069,65.479z"/>
			<path fill="#1D1D1B" d="M172.665,62.088c0-1.807-1.275-2.65-2.925-2.65h-3.717v9.383h1.047v-3.994h2.229l2.014,3.994h1.198
				l-2.058-4.074C171.79,64.463,172.665,63.549,172.665,62.088z M171.62,62.129c0,1.182-0.661,1.754-2.05,1.754h-2.5v-3.504h2.637
				C170.946,60.379,171.62,60.973,171.62,62.129z"/>
			<path fill="#1D1D1B" d="M183.882,68.82v-0.918h-4.52h-1.061c0.352-0.457,0.77-1,1.141-1.518l4.439-6.043v-0.904h-6.438v0.904
				h4.256h1.059c-0.348,0.459-0.768,1.008-1.148,1.52l-4.439,6.039v0.918h6.711V68.82z"/>
			<path fill="#1D1D1B" d="M192.843,68.82l-3.258-9.383h-1.154l-3.262,9.383h1.068l0.826-2.383h3.873l0.811,2.383H192.843z
				 M190.618,65.479h-3.234l1.033-3.051c0.23-0.664,0.5-1.51,0.592-1.883c0.096,0.389,0.377,1.232,0.576,1.85L190.618,65.479z"/>
			<path fill="#1D1D1B" d="M203.407,66.357c0-1.398-0.643-2.094-2.719-2.854c-1.881-0.66-2.23-1.109-2.23-1.887
				c0-0.738,0.541-1.379,1.822-1.379c0.938,0,1.568,0.307,2.258,0.865l0.672-0.814c-0.799-0.627-1.596-1.006-2.857-1.006
				c-1.76,0-2.938,0.896-2.938,2.396c0,1.359,0.68,2.018,2.705,2.74c1.719,0.613,2.244,1.113,2.244,1.982
				c0,0.992-0.777,1.613-2.025,1.613c-0.963,0-1.787-0.445-2.494-1.123l-0.699,0.773c0.738,0.748,1.881,1.293,3.152,1.293
				C202.251,68.961,203.407,67.832,203.407,66.357z"/>
			<path fill="#1D1D1B" d="M212.064,64.984v-5.547h-1.055v5.58c0,2.02-0.635,3-2.26,3c-1.623,0-2.404-1.01-2.404-3.033v-5.547
				h-1.041v5.58c0,2.6,1.148,3.943,3.391,3.943C210.952,68.961,212.064,67.586,212.064,64.984z"/>
			<path fill="#1D1D1B" d="M221.642,64.113c0-2.832-1.557-4.83-3.893-4.83c-2.334,0-3.904,2.023-3.904,4.863
				c0,2.824,1.541,4.814,3.879,4.814C220.064,68.961,221.642,66.941,221.642,64.113z M220.591,64.146
				c0,2.35-1.205,3.871-2.826,3.871c-1.639,0-2.873-1.537-2.873-3.904c0-2.359,1.193-3.873,2.816-3.873
				C219.345,60.24,220.591,61.779,220.591,64.146z"/>
			<path fill="#1D1D1B" d="M228.904,56.564h-0.834l-1.363,1.385l-1.348-1.385h-0.877l1.652,2.145h1.125L228.904,56.564z
				 M229.765,67.414l-0.717-0.633c-0.604,0.781-1.311,1.236-2.32,1.236c-1.586,0-2.779-1.613-2.779-3.904
				c0-2.279,1.15-3.873,2.758-3.873c1.025,0,1.588,0.357,2.189,1.176l0.824-0.627c-0.732-1.016-1.693-1.506-2.982-1.506
				c-2.271,0-3.836,2.066-3.836,4.863c0,2.748,1.5,4.814,3.799,4.814C228.07,68.961,229.083,68.336,229.765,67.414z"/>
			<path fill="#1D1D1B" d="M238.126,68.82l-3.262-9.383h-1.15l-3.26,9.383h1.066l0.824-2.383h3.875l0.809,2.383H238.126z
				 M235.902,65.479h-3.23l1.029-3.051c0.223-0.664,0.5-1.51,0.588-1.883c0.094,0.389,0.379,1.232,0.576,1.85L235.902,65.479z"/>
			<path fill="#1D1D1B" d="M245.679,59.438h-1.07l-2.109,6.387c-0.174,0.557-0.496,1.549-0.584,1.881
				c-0.098-0.332-0.391-1.285-0.58-1.85l-2.096-6.418h-1.102l3.195,9.383h1.154L245.679,59.438z"/>
			<path fill="#1D1D1B" d="M253.37,68.82l-3.26-9.383h-1.152l-3.256,9.383h1.064l0.814-2.383h3.885l0.801,2.383H253.37z
				 M251.142,65.479h-3.225l1.021-3.051c0.23-0.664,0.504-1.51,0.586-1.883c0.1,0.389,0.387,1.232,0.584,1.85L251.142,65.479z"/>
			<path fill="#1D1D1B" d="M261.868,68.82v-9.383h-1.01v7.072v0.646c-0.125-0.242-0.473-0.855-0.676-1.184l-4.061-6.537h-1.018
				v9.383h1.004v-6.955v-0.654c0.125,0.248,0.475,0.863,0.67,1.188l4.104,6.424H261.868L261.868,68.82z"/>
			<path fill="#1D1D1B" d="M269.474,65.232v-5.795h-1.053v5.742c0,1.977-0.619,2.838-2.115,2.838c-1.113,0-1.652-0.633-2.027-1.652
				l-0.996,0.336c0.504,1.463,1.4,2.262,2.979,2.262C268.423,68.961,269.474,67.734,269.474,65.232z"/>
			<polygon fill="#1D1D1B" points="277.534,68.82 277.534,67.873 272.702,67.873 272.702,64.287 275.386,64.287 275.386,63.33 
				272.702,63.33 272.702,60.379 277.329,60.379 277.329,59.438 271.65,59.438 271.65,68.82 			"/>
			<path fill="#1D1D1B" d="M288.15,66.357c0-1.398-0.65-2.094-2.729-2.854c-1.875-0.66-2.227-1.109-2.227-1.887
				c0-0.738,0.537-1.379,1.828-1.379c0.936,0,1.568,0.307,2.252,0.865l0.676-0.814c-0.803-0.627-1.604-1.006-2.865-1.006
				c-1.756,0-2.934,0.896-2.934,2.396c0,1.359,0.682,2.018,2.707,2.74c1.717,0.613,2.236,1.113,2.236,1.982
				c0,0.992-0.775,1.613-2.027,1.613c-0.961,0-1.775-0.445-2.49-1.123l-0.695,0.773c0.742,0.748,1.871,1.293,3.154,1.293
				C286.993,68.961,288.15,67.832,288.15,66.357z"/>
			<path fill="#1D1D1B" d="M299.673,62.227c0-1.898-1.283-2.789-2.984-2.789h-3.521v9.383h1.049v-3.684h2.273
				C298.37,65.137,299.673,64.102,299.673,62.227z M298.628,62.273c0,1.244-0.686,1.912-2.115,1.912h-2.297v-3.807h2.43
				C297.927,60.379,298.628,61.068,298.628,62.273z"/>
			<path fill="#1D1D1B" d="M307.882,62.088c0-1.807-1.271-2.65-2.924-2.65h-3.715v9.383h1.049v-3.994h2.229l2.006,3.994h1.207
				l-2.066-4.074C307.011,64.463,307.882,63.549,307.882,62.088z M306.839,62.129c0,1.182-0.658,1.754-2.053,1.754h-2.492v-3.504
				h2.621C306.171,60.379,306.839,60.973,306.839,62.129z"/>
			<path fill="#1D1D1B" d="M316.966,64.113c0-2.832-1.557-4.83-3.891-4.83c-2.34,0-3.902,2.023-3.902,4.863
				c0,2.824,1.541,4.814,3.877,4.814C315.382,68.961,316.966,66.941,316.966,64.113z M315.923,64.146
				c0,2.35-1.207,3.871-2.832,3.871c-1.641,0-2.871-1.537-2.871-3.904c0-2.359,1.191-3.873,2.816-3.873
				C314.667,60.24,315.923,61.779,315.923,64.146z"/>
			<path fill="#1D1D1B" d="M323.712,56.564h-0.85l-1.355,1.385l-1.348-1.385h-0.873l1.645,2.145h1.131L323.712,56.564z
				 M324.583,66.357c0-1.398-0.646-2.094-2.723-2.854c-1.883-0.66-2.232-1.109-2.232-1.887c0-0.738,0.543-1.379,1.832-1.379
				c0.938,0,1.568,0.307,2.252,0.865l0.668-0.814c-0.793-0.627-1.592-1.006-2.859-1.006c-1.752,0-2.934,0.896-2.934,2.396
				c0,1.359,0.682,2.018,2.713,2.74c1.717,0.613,2.236,1.113,2.236,1.982c0,0.992-0.781,1.613-2.027,1.613
				c-0.965,0-1.789-0.445-2.496-1.123l-0.695,0.773c0.748,0.748,1.877,1.293,3.154,1.293
				C323.427,68.961,324.583,67.832,324.583,66.357z"/>
			<polygon fill="#1D1D1B" points="332.224,68.82 332.224,67.873 327.583,67.873 327.583,59.438 326.544,59.438 326.544,68.82 			
				"/>
			<path fill="#1D1D1B" d="M341.109,64.113c0-2.832-1.555-4.83-3.891-4.83s-3.896,2.023-3.896,4.863
				c0,2.824,1.537,4.814,3.871,4.814C339.525,68.961,341.109,66.941,341.109,64.113z M340.06,64.146c0,2.35-1.205,3.871-2.832,3.871
				c-1.633,0-2.865-1.537-2.865-3.904c0-2.359,1.191-3.873,2.816-3.873C338.808,60.24,340.06,61.779,340.06,64.146z"/>
			<path fill="#1D1D1B" d="M347.855,56.564h-0.844l-1.359,1.385l-1.35-1.385h-0.875l1.65,2.145h1.127L347.855,56.564z
				 M348.728,66.357c0-1.398-0.648-2.094-2.727-2.854c-1.881-0.66-2.229-1.109-2.229-1.887c0-0.738,0.535-1.379,1.83-1.379
				c0.939,0,1.562,0.307,2.252,0.865l0.664-0.814c-0.783-0.627-1.584-1.006-2.854-1.006c-1.752,0-2.939,0.896-2.939,2.396
				c0,1.359,0.691,2.018,2.709,2.74c1.723,0.613,2.244,1.113,2.244,1.982c0,0.992-0.775,1.613-2.027,1.613
				c-0.965,0-1.783-0.445-2.5-1.123l-0.689,0.773c0.738,0.748,1.877,1.293,3.15,1.293C347.573,68.961,348.728,67.832,348.728,66.357
				z"/>
			<path fill="#1D1D1B" d="M356.691,56.684h-1.432l-1.383,2.148h0.793L356.691,56.684z M357.157,67.414l-0.73-0.633
				c-0.602,0.781-1.307,1.236-2.32,1.236c-1.584,0-2.779-1.613-2.779-3.904c0-2.279,1.148-3.873,2.766-3.873
				c1.021,0,1.588,0.357,2.189,1.176l0.826-0.627c-0.732-1.016-1.699-1.506-2.982-1.506c-2.273,0-3.844,2.066-3.844,4.863
				c0,2.748,1.504,4.814,3.801,4.814C355.45,68.961,356.464,68.336,357.157,67.414z"/>
			<path fill="#1D1D1B" d="M365.587,64.984v-5.547h-1.043v5.58c0,2.02-0.646,3-2.266,3c-1.631,0-2.398-1.01-2.398-3.033v-5.547
				h-1.049v5.58c0,2.6,1.148,3.943,3.389,3.943C364.48,68.961,365.587,67.586,365.587,64.984z"/>
		</g>
	</g>
	<path fill="#1D1D1B" d="M6.529,25.067c-1.908,1.803-4.762,2.458-7.826,2.458c-3.725-0.054-6.781-0.667-10.529-2.846l2.407-4.522
		c2.562,1.373,5.27,2.059,8.123,2.059c1.848,0,3.221-0.407,4.12-1.227c0.897-0.818,1.142-1.739,1.281-2.84
		c0.205-1.63-1.571-6.56-9.593-2.563l-5.041-1.61l0-13.548H6.982v5.309L-5.142,5.789l0.041,4.56
		C-2.76,8.75,2.338,8.557,5.013,10.073c1.491,0.846,2.724,1.938,3.555,3.39C9.401,14.916,11.406,20.457,6.529,25.067z"/>
	<g>
		<polygon fill="#1D1D1B" points="-19.405,26.94 -14.252,26.94 -14.252,13.079 -19.405,8.034 		"/>
	</g>
	<polygon fill="#B2A388" points="-24.587,0.758 -14.224,10.901 -14.224,0.758 	"/>
</g>
</svg>
