<?xml version="1.0" encoding="utf-8"?>
<!-- Generator: Adobe Illustrator 16.0.0, SVG Export Plug-In . SVG Version: 6.00 Build 0)  -->
<!DOCTYPE svg PUBLIC "-//W3C//DTD SVG 1.1//EN" "http://www.w3.org/Graphics/SVG/1.1/DTD/svg11.dtd">
<svg version="1.1" id="Layer_1" xmlns="http://www.w3.org/2000/svg" xmlns:xlink="http://www.w3.org/1999/xlink" x="0px" y="0px"
	 width="26.949px" height="27.307px" viewBox="0 0 26.949 27.307" enable-background="new 0 0 26.949 27.307" xml:space="preserve">
<g>
	<path fill="#B2A388" d="M13.213,9.782c0.375,0,0.564-0.299,0.564-0.897V6.143c0-0.609-0.189-0.914-0.564-0.914
		s-0.564,0.305-0.564,0.914v2.742C12.648,9.483,12.838,9.782,13.213,9.782z"/>
	<path fill="#B2A388" d="M-0.025,0v27.307h27V0H-0.025z M15.918,4.261H17.1v4.781c0,0.281,0.004,0.434,0.016,0.457
		c0.014,0.188,0.107,0.282,0.281,0.282c0.234,0,0.48-0.182,0.738-0.545V4.261h1.18v6.505h-1.18v-0.704
		c-0.48,0.527-0.932,0.791-1.354,0.791c-0.375,0-0.625-0.157-0.758-0.475c-0.066-0.211-0.105-0.533-0.105-0.965V4.261z
		 M11.475,6.371c0-0.679,0.121-1.188,0.367-1.529c0.314-0.445,0.773-0.667,1.371-0.667c0.574,0,1.033,0.222,1.373,0.667
		c0.244,0.341,0.367,0.85,0.367,1.529v2.287c0,0.703-0.123,1.213-0.367,1.527c-0.34,0.446-0.799,0.668-1.373,0.668
		c-0.598,0-1.057-0.222-1.371-0.668c-0.246-0.339-0.367-0.849-0.367-1.527V6.371z M8.311,2.03l0.93,3.428l0.896-3.428h1.32
		L9.875,7.233v3.533H8.572V7.233C8.445,6.588,8.174,5.662,7.766,4.457c-0.27-0.81-0.404-1.214-0.404-1.214L6.938,2.03H8.311z
		 M22.793,23.246c-0.119,0.504-0.367,0.934-0.746,1.283c-0.383,0.352-0.822,0.557-1.33,0.615c-1.604,0.176-4.018,0.264-7.24,0.264
		c-3.221,0-5.635-0.088-7.242-0.264c-0.504-0.059-0.947-0.264-1.324-0.615c-0.383-0.35-0.631-0.779-0.748-1.283
		c-0.234-0.984-0.352-2.508-0.352-4.57c0-2.025,0.117-3.551,0.352-4.57c0.117-0.516,0.365-0.945,0.748-1.291
		c0.377-0.348,0.826-0.549,1.344-0.607c1.592-0.174,4.002-0.264,7.223-0.264c3.234,0,5.65,0.09,7.24,0.264
		c0.508,0.059,0.949,0.26,1.338,0.607c0.385,0.346,0.641,0.775,0.756,1.291c0.223,0.973,0.334,2.496,0.334,4.57
		C23.145,20.738,23.029,22.262,22.793,23.246z"/>
	<polygon fill="#B2A388" points="5.252,15.426 6.621,15.426 6.621,22.859 7.922,22.859 7.922,15.426 9.328,15.426 9.328,14.193 
		5.252,14.193 	"/>
	<path fill="#B2A388" d="M11.686,21.33c-0.26,0.363-0.506,0.545-0.736,0.545c-0.166,0-0.256-0.086-0.266-0.264
		c-0.016-0.023-0.018-0.176-0.018-0.457v-4.746h-1.16v5.098c0,0.445,0.031,0.764,0.105,0.949c0.105,0.328,0.35,0.492,0.738,0.492
		c0.434,0,0.879-0.264,1.336-0.791v0.703h1.176v-6.451h-1.176V21.33z"/>
	<path fill="#B2A388" d="M16.236,16.32c-0.422,0-0.818,0.234-1.193,0.703v-2.83h-1.18v8.666h1.18v-0.633
		c0.387,0.48,0.785,0.721,1.193,0.721c0.482,0,0.791-0.246,0.932-0.738c0.082-0.246,0.123-0.674,0.123-1.283v-2.566
		c0-0.621-0.041-1.055-0.123-1.299C17.027,16.566,16.719,16.32,16.236,16.32z M16.131,21.016c0,0.572-0.17,0.859-0.51,0.859
		c-0.199,0-0.393-0.094-0.578-0.281v-3.938c0.186-0.186,0.379-0.281,0.578-0.281c0.34,0,0.51,0.293,0.51,0.879V21.016z"/>
	<path fill="#B2A388" d="M20.508,21.004c0,0.125-0.004,0.221-0.008,0.291c-0.006,0.07-0.01,0.111-0.01,0.123
		c-0.07,0.305-0.246,0.457-0.527,0.457c-0.4,0-0.596-0.299-0.596-0.896v-1.143h2.336V18.5c0-0.68-0.123-1.184-0.369-1.512
		c-0.314-0.445-0.773-0.668-1.371-0.668c-0.596,0-1.066,0.223-1.404,0.668c-0.236,0.316-0.354,0.82-0.354,1.512v2.268
		c0,0.691,0.125,1.197,0.371,1.512c0.34,0.445,0.812,0.668,1.424,0.668c0.621,0,1.088-0.232,1.406-0.703
		c0.141-0.211,0.229-0.445,0.26-0.703c0.025-0.164,0.039-0.416,0.039-0.754v-0.158h-1.197V21.004z M19.367,18.271
		c0-0.598,0.191-0.896,0.58-0.896c0.385,0,0.58,0.299,0.58,0.896v0.598h-1.16V18.271z"/>
</g>
</svg>
