<?xml version="1.0" encoding="utf-8"?>
<!-- Generator: Adobe Illustrator 16.0.0, SVG Export Plug-In . SVG Version: 6.00 Build 0)  -->
<!DOCTYPE svg PUBLIC "-//W3C//DTD SVG 1.1//EN" "http://www.w3.org/Graphics/SVG/1.1/DTD/svg11.dtd">
<svg version="1.1" id="Layer_1" xmlns="http://www.w3.org/2000/svg" xmlns:xlink="http://www.w3.org/1999/xlink" x="0px" y="0px"
	 width="26.949px" height="27.307px" viewBox="0 0 26.949 27.307" enable-background="new 0 0 26.949 27.307" xml:space="preserve">
<path fill="#B2A388" d="M-0.025,0v27.307h27V0H-0.025z M20.633,10.698c0.012,0.106,0.016,0.262,0.016,0.475
	c0,0.988-0.145,1.972-0.43,2.957c-0.287,0.994-0.729,1.943-1.316,2.852c-0.59,0.91-1.299,1.711-2.121,2.41
	c-0.82,0.697-1.803,1.254-2.951,1.668c-1.148,0.42-2.379,0.627-3.693,0.627c-2.037,0-3.928-0.553-5.66-1.654
	c0.283,0.033,0.578,0.053,0.881,0.053c1.699,0,3.227-0.527,4.586-1.584c-0.797-0.01-1.504-0.256-2.137-0.738
	c-0.623-0.477-1.061-1.09-1.307-1.826c0.307,0.045,0.533,0.068,0.686,0.068c0.258,0,0.553-0.043,0.896-0.139
	c-0.857-0.164-1.58-0.59-2.162-1.277c-0.588-0.684-0.877-1.465-0.877-2.342v-0.037c0.615,0.291,1.205,0.445,1.754,0.455
	c-1.062-0.715-1.602-1.741-1.602-3.074c0-0.657,0.174-1.277,0.514-1.862c0.924,1.136,2.053,2.041,3.371,2.724
	c1.324,0.68,2.746,1.057,4.26,1.138c-0.061-0.22-0.09-0.501-0.09-0.841c0-1.021,0.357-1.887,1.08-2.611
	c0.725-0.719,1.59-1.079,2.611-1.079c1.078,0,1.975,0.387,2.688,1.159c0.812-0.152,1.596-0.448,2.357-0.896
	C21.691,8.225,21.15,8.91,20.35,9.38c0.764-0.107,1.471-0.308,2.129-0.601C21.986,9.529,21.371,10.17,20.633,10.698z"/>
</svg>
