<?xml version="1.0" encoding="utf-8"?>
<!-- Generator: Adobe Illustrator 16.0.0, SVG Export Plug-In . SVG Version: 6.00 Build 0)  -->
<!DOCTYPE svg PUBLIC "-//W3C//DTD SVG 1.1//EN" "http://www.w3.org/Graphics/SVG/1.1/DTD/svg11.dtd">
<svg version="1.1" id="Layer_1" xmlns="http://www.w3.org/2000/svg" xmlns:xlink="http://www.w3.org/1999/xlink" x="0px" y="0px"
	 width="17.375px" height="17.333px" viewBox="0 0 17.375 17.333" enable-background="new 0 0 17.375 17.333" xml:space="preserve">
<path fill="#B2A388" d="M15.336,2.041c-1.209-1.208-2.816-1.873-4.525-1.873S7.496,0.833,6.287,2.041
	c-2.164,2.165-2.449,5.507-0.855,7.983c-0.178,0.072-0.344,0.18-0.486,0.323L0.641,14.65c-0.576,0.576-0.576,1.51,0,2.086
	c0.289,0.288,0.666,0.431,1.043,0.431s0.754-0.143,1.043-0.431l4.303-4.304c0.145-0.144,0.25-0.309,0.324-0.486
	c1.021,0.659,2.211,1.018,3.457,1.018c1.709,0,3.316-0.665,4.525-1.874C17.832,8.595,17.832,4.536,15.336,2.041z M13.549,9.302
	c-0.732,0.731-1.703,1.134-2.738,1.134c-1.033,0-2.006-0.402-2.736-1.133c-1.51-1.51-1.51-3.966,0-5.476
	c0.73-0.73,1.703-1.133,2.736-1.133c1.035,0,2.008,0.402,2.738,1.133C15.059,5.337,15.059,7.793,13.549,9.302z"/>
</svg>
